<svg width="234" height="50" viewBox="0 0 234 50" fill="none" xmlns="http://www.w3.org/2000/svg">
<circle cx="117" cy="25" r="25" fill="white" fill-opacity="0.63"/>
<circle cx="226.5" cy="24.5" r="7.5" fill="#3F4E5C"/>
<circle cx="180.5" cy="24.5" r="7.5" fill="#3F4E5C"/>
<circle cx="180.5" cy="24.5" r="2.5" fill="white" fill-opacity="0.91"/>
<circle cx="226.5" cy="24.5" r="2.5" fill="white" fill-opacity="0.91"/>
<circle cx="7.5" cy="7.5" r="7.5" transform="matrix(-1 0 0 1 15 17)" fill="#3F4E5C"/>
<circle cx="7.5" cy="7.5" r="7.5" transform="matrix(-1 0 0 1 61 17)" fill="#3F4E5C"/>
<rect x="109" y="22" width="17" height="15" rx="7" fill="#3F4E5C"/>
<path d="M121.728 19.1209C122.385 18.9944 122.826 18.3515 122.57 17.733C122.425 17.3811 122.246 17.043 122.035 16.7235C121.602 16.0656 121.043 15.4996 120.39 15.0578C119.738 14.6159 119.005 14.3069 118.233 14.1484C117.461 13.9899 116.666 13.9849 115.892 14.1338C115.118 14.2827 114.381 14.5825 113.723 15.0162C113.066 15.4498 112.5 16.0088 112.058 16.6612C111.616 17.3136 111.307 18.0467 111.148 18.8185C111.071 19.1933 111.031 19.5737 111.026 19.9545C111.018 20.6238 111.667 21.057 112.324 20.9305C112.981 20.804 113.39 20.1576 113.489 19.4957C113.498 19.4323 113.51 19.3691 113.523 19.3061C113.617 18.8461 113.801 18.4091 114.065 18.0203C114.328 17.6314 114.665 17.2982 115.057 17.0397C115.45 16.7813 115.889 16.6025 116.35 16.5138C116.811 16.425 117.285 16.428 117.745 16.5225C118.205 16.617 118.642 16.8012 119.031 17.0645C119.42 17.3279 119.753 17.6653 120.012 18.0574C120.047 18.111 120.081 18.1656 120.113 18.2209C120.451 18.7988 121.07 19.2474 121.728 19.1209Z" fill="#3F4E5C"/>
<rect x="116" y="27" width="3" height="5" rx="1.5" fill="white"/>
<path d="M148.5 25H166.5" stroke="#697680" stroke-linecap="round"/>
<path d="M195 25H213" stroke="#697680" stroke-linecap="round"/>
<path d="M68 25H86" stroke="#697680" stroke-linecap="round"/>
<path d="M22 25H40" stroke="#697680" stroke-linecap="round"/>
<circle cx="53.5" cy="24.5" r="2.5" fill="white" fill-opacity="0.91"/>
<circle cx="7.5" cy="24.5" r="2.5" fill="white" fill-opacity="0.91"/>
</svg>
